# xmcd
#
# Track frame offsets:
#  150
#  15925
#  30872
#  42367
#  60805
#  81650
#  96930
#  107117
#  128825
#  143350
#  156575
#  169942
#  185540
#
# Disc length: 2763 seconds
#
# Revision: 0
# Processed by: cddbd v1.5.2PL0 Copyright (c) Steve Scherf et al.
# Submitted via: AltoMP3_Maker 3.0
#
DISCID=9f0ac90d
DTITLE=Lex and Joe - Coaltown Blues
DYEAR=1900
DGENRE=
TTITLE0=Coaltown Blues
TTITLE1=Pink Champagne
TTITLE2=Don't '98
TTITLE3=Go Jo Jo
TTITLE4=Gotta Move
TTITLE5=Walkin' Spanish Down the Hall
TTITLE6=If You're a Viper
TTITLE7=Jessie's Back in Town
TTITLE8=Hail Bop
TTITLE9=Do Nothing 'Til You Hear from Me
TTITLE10=Step It Up and Go
TTITLE11=Come On Home Baby
TTITLE12=Rocking Chair
EXTD=
EXTT0=
EXTT1=
EXTT2=
EXTT3=
EXTT4=
EXTT5=
EXTT6=
EXTT7=
EXTT8=
EXTT9=
EXTT10=
EXTT11=
EXTT12=
PLAYORDER=
